<?xml version="1.0" encoding="utf-8"?>
<!-- Generator: Adobe Illustrator 13.0.0, SVG Export Plug-In . SVG Version: 6.00 Build 14948)  -->
<!DOCTYPE svg PUBLIC "-//W3C//DTD SVG 1.1//EN" "http://www.w3.org/Graphics/SVG/1.1/DTD/svg11.dtd">
<svg version="1.1" id="Layer_1" xmlns="http://www.w3.org/2000/svg" xmlns:xlink="http://www.w3.org/1999/xlink" x="0px" y="0px"
	 width="207.172px" height="70px" viewBox="0 0 207.172 70" enable-background="new 0 0 207.172 70" xml:space="preserve">
<linearGradient id="SVGID_1_" gradientUnits="userSpaceOnUse" x1="56.7964" y1="72.1035" x2="13.376" y2="-3.1029">
	<stop  offset="0" style="stop-color:#EE316A"/>
	<stop  offset="1" style="stop-color:#F15D3D"/>
</linearGradient>
<path fill="url(#SVGID_1_)" d="M70.086,57.5c0,6.627-5.373,12-12,12h-46c-6.627,0-12-5.373-12-12v-46c0-6.627,5.373-12,12-12h46
	c6.627,0,12,5.373,12,12V57.5z"/>
<g>
	<path fill="#FFFFFF" d="M9.242,35.346c0.002-13.928,11.29-25.216,25.218-25.218l0,0c13.928,0.002,25.215,11.29,25.217,25.218l0,0
		c-0.002,13.928-11.29,25.215-25.217,25.217l0,0C20.531,60.561,9.244,49.273,9.242,35.346L9.242,35.346z M20.281,21.167
		c-3.633,3.637-5.872,8.634-5.873,14.179l0,0c0.001,5.545,2.24,10.541,5.873,14.178l0,0c3.637,3.633,8.633,5.873,14.179,5.873l0,0
		c5.545,0,10.542-2.24,14.178-5.873l0,0c3.633-3.637,5.872-8.633,5.874-14.178l0,0c-0.001-5.545-2.241-10.542-5.874-14.179l0,0
		c-3.637-3.633-8.633-5.872-14.178-5.873l0,0C28.914,15.294,23.917,17.534,20.281,21.167L20.281,21.167z"/>
	<path fill="#FFFFFF" d="M24.283,42.055c-0.001-0.498,0.118-0.988,0.328-1.418l0,0c0.209-0.432,0.5-0.801,0.833-1.117l0,0
		c0.67-0.629,1.505-1.068,2.439-1.414l0,0c1.868-0.684,4.182-0.988,6.507-0.992l0,0c1.524,0,3.048,0.137,4.44,0.418l0,0
		c1.393,0.287,2.655,0.705,3.686,1.355l0,0c0.682,0.436,1.284,0.994,1.654,1.75l0,0c0.209,0.43,0.329,0.92,0.327,1.418l0,0
		c0,5.584-4.525,10.107-10.107,10.109l0,0C28.808,52.162,24.284,47.639,24.283,42.055L24.283,42.055z M30.464,40.062
		c-1.188,0.238-2.196,0.605-2.812,1.004l0,0c-0.416,0.262-0.635,0.521-0.717,0.697l0,0c-0.049,0.104-0.067,0.184-0.069,0.291l0,0
		c0.001,2.084,0.84,3.955,2.204,5.322l0,0c1.366,1.363,3.239,2.203,5.321,2.203l0,0c2.082,0,3.955-0.84,5.321-2.203l0,0
		c1.364-1.367,2.203-3.238,2.204-5.322l0,0c-0.001-0.107-0.02-0.188-0.069-0.291l0,0c-0.049-0.102-0.137-0.227-0.286-0.367l0,0
		c-0.293-0.283-0.837-0.605-1.556-0.867l0,0c-1.438-0.535-3.532-0.838-5.615-0.834l0,0c-0.003,0-0.006,0-0.009,0l0,0
		C33.017,39.695,31.65,39.82,30.464,40.062L30.464,40.062z"/>
	<path fill="#FFFFFF" d="M20.467,29.385c0-2.869,2.325-5.193,5.194-5.194l0,0c2.869,0.001,5.193,2.325,5.194,5.194l0,0
		c-0.001,2.869-2.325,5.193-5.194,5.194l0,0C22.792,34.579,20.468,32.254,20.467,29.385L20.467,29.385z M23.05,29.385
		c0.003,1.441,1.17,2.608,2.611,2.611l0,0c1.441-0.003,2.608-1.17,2.611-2.611l0,0c-0.003-1.441-1.17-2.608-2.611-2.611l0,0
		C24.22,26.777,23.053,27.944,23.05,29.385L23.05,29.385z"/>
	<path fill="#FFFFFF" d="M37.394,29.385c0.001-2.869,2.325-5.193,5.194-5.194l0,0c2.869,0.001,5.193,2.325,5.194,5.194l0,0
		c-0.001,2.869-2.325,5.193-5.194,5.194l0,0C39.719,34.579,37.395,32.254,37.394,29.385L37.394,29.385z M39.977,29.385
		c0.002,1.441,1.17,2.608,2.611,2.611l0,0c1.441-0.003,2.608-1.17,2.611-2.611l0,0c-0.003-1.441-1.17-2.608-2.611-2.611l0,0
		C41.147,26.777,39.979,27.944,39.977,29.385L39.977,29.385z"/>
	<circle fill="#FFFFFF" cx="9.937" cy="16.912" r="3.051"/>
	<path fill="#FFFFFF" d="M11.427,16.221V4.017l1.528-0.072l0.018-0.002c0,0.004,0.001,0.014,0.003,0.027l0,0
		C12.981,3.999,12.989,4.043,13,4.101l0,0c0.023,0.116,0.065,0.282,0.134,0.463l0,0c0.138,0.365,0.376,0.761,0.739,0.997l0,0
		c0.246,0.159,0.554,0.274,1.032,0.277l0,0c0.136,0,0.287-0.011,0.452-0.034l0,0l0.218,1.534c-0.232,0.033-0.455,0.05-0.67,0.05l0,0
		c-0.75,0.002-1.394-0.207-1.885-0.534l0,0c-0.015-0.01-0.029-0.02-0.043-0.029l0,0v9.396l0,0H11.427L11.427,16.221z"/>
</g>
</svg>
