<svg xmlns="http://www.w3.org/2000/svg" xmlns:xlink="http://www.w3.org/1999/xlink" version="1.1" x="0px" y="0px" viewBox="0 0 100 125" enable-background="new 0 0 100 100" xml:space="preserve"><g><circle cx="35.303" cy="17.664" r="16.053"/><rect x="28.167" y="60.896" width="14" height="15"/><rect x="28.167" y="29.896" width="14" height="28"/><g><path d="M51.466,98.389c-6.74,0-11.94-3.157-15.037-9.133c-2.188-4.222-2.968-9.295-2.968-12.637c0-1.153,0-3.3,1.954-3.3    c0.999,0,1.809,0.81,1.809,1.809c0,0.226-0.041,0.44-0.115,0.64c-0.121,1.351,0.049,9.46,4.384,14.636    c2.429,2.898,5.784,4.368,9.974,4.368c8.576,0,10.331-6.071,12.201-16.072c1.637-8.756,3.493-18.679,15.274-18.679    c0.999,0,1.809,0.81,1.809,1.809s-0.81,1.809-1.809,1.809c-8.188,0-9.889,5.941-11.719,15.727    C65.556,88.282,63.665,98.389,51.466,98.389z"/></g></g><text x="0" y="115" fill="#000000" font-size="5px" font-weight="bold" font-family="'Helvetica Neue', Helvetica, Arial-Unicode, Arial, Sans-serif">Created by Pavel N.</text><text x="0" y="120" fill="#000000" font-size="5px" font-weight="bold" font-family="'Helvetica Neue', Helvetica, Arial-Unicode, Arial, Sans-serif">from the Noun Project</text></svg>