<svg xmlns="http://www.w3.org/2000/svg" xmlns:xlink="http://www.w3.org/1999/xlink" version="1.1" x="0px" y="0px" viewBox="0 0 100 125" enable-background="new 0 0 100 100" xml:space="preserve"><polygon points="64.398,62.04 55,62.04 55,52.636 45,52.636 45,62.04 35.602,62.04 35.602,72.04 45,72.04 45,81.443 55,81.443   55,72.04 64.398,72.04 "/><g><path d="M71.421,72.04v-10C78.909,62.04,85,55.942,85,48.447c0-7.483-6.091-13.57-13.579-13.57c-1.018,0-2.065,0.128-3.11,0.381   l-3.578,0.867l-1.89-3.159c-3.522-5.889-9.688-9.405-16.491-9.405c-10.605,0-19.234,8.63-19.234,19.238v5h-5   c-3.925,0-7.118,3.194-7.118,7.12c0,3.927,3.193,7.121,7.118,7.121h6.46v10h-6.46C12.679,72.04,5,64.359,5,54.919   c0-7.818,5.269-14.43,12.441-16.47c2.107-14.066,14.269-24.888,28.911-24.888c9.04,0,17.616,4.296,23.115,11.401   c0.653-0.057,1.306-0.085,1.955-0.085C84.423,24.877,95,35.451,95,48.447C95,61.456,84.423,72.04,71.421,72.04z"/></g><text x="0" y="115" fill="#000000" font-size="5px" font-weight="bold" font-family="'Helvetica Neue', Helvetica, Arial-Unicode, Arial, Sans-serif">Created by Agnese Ragucci</text><text x="0" y="120" fill="#000000" font-size="5px" font-weight="bold" font-family="'Helvetica Neue', Helvetica, Arial-Unicode, Arial, Sans-serif">from the Noun Project</text></svg>