<svg xmlns="http://www.w3.org/2000/svg" xmlns:xlink="http://www.w3.org/1999/xlink" version="1.1" x="0px" y="0px" viewBox="0 0 100 125" enable-background="new 0 0 100 100" xml:space="preserve"><path d="M94.781,54.492c0.146-1.479,0.224-2.979,0.224-4.496c0-1.426-0.07-2.837-0.2-4.232l-10.565-2.043l-1.366-5.238l8.193-6.917  c-1.206-2.685-2.667-5.229-4.354-7.604l-10.258,3.445l-3.77-3.886l3.696-9.984c-2.393-1.734-4.962-3.239-7.677-4.481l-7.081,8.205  l-5.224-1.423L54.465,5.217c-1.468-0.144-2.955-0.22-4.46-0.22c-1.442,0-2.866,0.07-4.273,0.203l-2.133,10.693l-5.247,1.335  L31.47,8.979c-2.66,1.204-5.181,2.658-7.535,4.334l3.579,10.31l-3.848,3.808l-10.224-3.668c-1.689,2.351-3.159,4.871-4.375,7.53  l8.234,7.246l-1.473,5.209L5.221,45.575c-0.142,1.455-0.217,2.93-0.217,4.421c0,1.431,0.07,2.847,0.201,4.246l10.725,2.074  l1.366,5.238L9,68.559c1.209,2.666,2.671,5.193,4.354,7.553l10.361-3.48l3.769,3.885l-3.717,10.043  c2.395,1.721,4.965,3.215,7.68,4.445l7.1-8.227l5.223,1.422l1.929,10.592c1.417,0.133,2.853,0.205,4.305,0.205  c1.5,0,2.983-0.074,4.446-0.217l2.121-10.635l5.246-1.334l6.811,8.162c2.67-1.217,5.201-2.686,7.562-4.377l-3.533-10.182  l3.848-3.807l10.071,3.613c1.701-2.369,3.178-4.908,4.399-7.588L82.869,61.5l1.474-5.209L94.781,54.492z M67.084,50.37  c-0.204,9.435-8.019,16.919-17.455,16.714c-9.436-0.203-16.919-8.02-16.715-17.455c0.205-9.436,8.021-16.919,17.456-16.715  C59.807,33.119,67.29,40.934,67.084,50.37z"/><text x="0" y="115" fill="#000000" font-size="5px" font-weight="bold" font-family="'Helvetica Neue', Helvetica, Arial-Unicode, Arial, Sans-serif">Created by Scerpa</text><text x="0" y="120" fill="#000000" font-size="5px" font-weight="bold" font-family="'Helvetica Neue', Helvetica, Arial-Unicode, Arial, Sans-serif">from the Noun Project</text></svg>