<svg xmlns="http://www.w3.org/2000/svg" xmlns:xlink="http://www.w3.org/1999/xlink" version="1.1" x="0px" y="0px" viewBox="0 0 141.73 177.1625" enable-background="new 0 0 141.73 141.73" xml:space="preserve"><g><path fill="#000000" d="M399.127,229.173c0.738-3.242,0.14-6.416-1.689-8.819c-1.818-2.391-4.696-3.762-7.894-3.762   c-1.508,0-3.049,0.309-4.515,0.897c-1.658-1.521-3.827-2.374-6.104-2.374c-4.793,0-8.728,3.744-9.031,8.461   c-4.287,0.709-7.567,4.442-7.567,8.928c0,4.447,3.257,8.205,7.563,8.92c1.578,2.879,4.602,4.695,7.933,4.695   c2.345,0,4.576-0.906,6.254-2.514c0.428,0.075,0.86,0.113,1.295,0.113c2.455,0,4.715-1.206,6.09-3.167   c0.694,0.22,1.42,0.333,2.149,0.333c3.947,0,7.159-3.211,7.159-7.158C400.77,232.064,400.18,230.449,399.127,229.173z    M393.611,237.885c-0.715,0-1.424-0.188-2.051-0.545l-1.452-0.824l-0.665,1.531c-0.705,1.623-2.303,2.672-4.071,2.672   c-0.452,0-0.902-0.069-1.338-0.206l-0.951-0.299l-0.644,0.76c-1.155,1.363-2.838,2.146-4.616,2.146   c-2.428,0-4.611-1.443-5.564-3.679l-0.362-0.848l-0.92-0.061c-3.168-0.207-5.649-2.855-5.649-6.028   c0-3.335,2.714-6.049,5.967-6.052l1.798,0.005l-0.182-1.662c-0.022-0.207-0.034-0.417-0.034-0.631c0-3.335,2.714-6.049,6.05-6.049   c1.779,0,3.46,0.781,4.612,2.145l0.765,0.904l1.058-0.534c1.343-0.679,2.789-1.038,4.184-1.038c2.253,0,4.26,0.94,5.506,2.578   c1.401,1.842,1.758,4.39,0.979,6.992l-0.267,0.892l0.681,0.635c0.855,0.799,1.327,1.877,1.327,3.038   C397.77,236.019,395.904,237.885,393.611,237.885z"/><path fill="#000000" d="M381.962,222.769c-0.68,0-1.807,0.551-1.807,1.229l0.578,8.65c0,0.678,0.549,1.229,1.229,1.229   c0.678,0,1.229-0.551,1.229-1.229l0.578-8.65C383.768,223.32,382.639,222.769,381.962,222.769z"/><circle fill="#000000" cx="381.962" cy="236.766" r="1.378"/></g><g><path d="M119.752,66.977c1.946-8.545,0.368-16.91-4.452-23.244c-4.792-6.301-12.377-9.914-20.804-9.914   c-3.974,0-8.035,0.813-11.898,2.365c-4.37-4.007-10.087-6.257-16.086-6.257c-12.632,0-23.002,9.868-23.802,22.299   C31.41,54.095,22.765,63.935,22.765,75.756c0,11.721,8.583,21.625,19.934,23.509c4.159,7.588,12.127,12.375,20.907,12.375   c6.179,0,12.06-2.389,16.482-6.625c0.16,0.028-5.384-5.807-5.384-5.807c-2.971,2.888-6.931,4.524-11.098,4.524   c-6.398,0-12.153-3.804-14.666-9.695l-0.955-2.233l-2.424-0.16c-8.35-0.545-14.89-7.525-14.89-15.888   c0-8.789,7.152-15.941,15.726-15.949l4.738,0.013l-0.479-4.38c-0.059-0.546-0.09-1.099-0.09-1.663   c0-8.79,7.152-15.942,15.944-15.942c4.689,0,9.119,2.059,12.156,5.652l2.015,2.383l2.787-1.408   c3.539-1.789,7.351-2.736,11.026-2.736c5.938,0,11.227,2.479,14.511,6.794c3.693,4.854,4.633,11.569,2.582,18.428l-0.703,2.35   l1.794,1.673c2.255,2.105,3.498,4.946,3.498,8.007c0,6.043-4.919,10.959-10.962,10.959c-1.884,0-3.753-0.497-5.405-1.437   l-3.827-2.172l-1.752,4.036c-0.142,0.326-0.322,0.625-0.492,0.934l5.747,5.747c0.021-0.028,0.044-0.051,0.064-0.079   c1.83,0.579,3.742,0.877,5.665,0.877c10.403,0,18.868-8.462,18.868-18.865C124.084,74.597,122.529,70.341,119.752,66.977z"/><path d="M103.234,108.682L82.728,88.177c1.109-1.737,1.899-3.608,2.348-5.533c1.424-5.981-0.159-12.544-4.823-17.211   c-3.454-3.451-8.038-5.348-12.915-5.348c-4.875,0-9.461,1.922-12.913,5.376c-3.454,3.452-5.351,8.038-5.351,12.913   c0,4.877,1.897,9.461,5.351,12.915c3.452,3.451,8.038,5.348,12.913,5.348c1.452,0,2.9-0.183,4.27-0.524   c1.977-0.448,3.848-1.241,5.536-2.348l20.503,20.505c0.793,0.765,1.794,1.161,2.795,1.161c1.027,0,2.028-0.396,2.793-1.161   C104.789,112.741,104.789,110.236,103.234,108.682z M74.665,85.701c-1.95,1.951-4.558,3.029-7.327,3.029   c-2.767,0-5.377-1.078-7.325-3.029c-1.951-1.951-3.032-4.561-3.032-7.327c0-2.768,1.081-5.377,3.032-7.328   c1.948-1.977,4.559-3.055,7.325-3.055c2.77,0,5.377,1.078,7.327,3.055C78.698,75.079,78.698,81.668,74.665,85.701z"/></g><text x="0" y="156.73" fill="#000000" font-size="5px" font-weight="bold" font-family="'Helvetica Neue', Helvetica, Arial-Unicode, Arial, Sans-serif">Created by Viktor Fedyuk</text><text x="0" y="161.73" fill="#000000" font-size="5px" font-weight="bold" font-family="'Helvetica Neue', Helvetica, Arial-Unicode, Arial, Sans-serif">from the Noun Project</text></svg>